<svg class="svg-inline--fa fa-desktop duration-300 group-hover:text-dark md:text-2xl text-primary text-xl transition-all" data-prefix="fas" data-icon="desktop" role="img" viewBox="0 0 512 512" aria-hidden="true" data-fa-i2svg="" xmlns="http://www.w3.org/2000/svg"><path fill="currentColor" d="M64 32C28.7 32 0 60.7 0 96L0 352c0 35.3 28.7 64 64 64l144 0-16 48-72 0c-13.3 0-24 10.7-24 24s10.7 24 24 24l272 0c13.3 0 24-10.7 24-24s-10.7-24-24-24l-72 0-16-48 144 0c35.3 0 64-28.7 64-64l0-256c0-35.3-28.7-64-64-64L64 32zM96 96l320 0c17.7 0 32 14.3 32 32l0 160c0 17.7-14.3 32-32 32L96 320c-17.7 0-32-14.3-32-32l0-160c0-17.7 14.3-32 32-32z"></path></svg>